<?xml version="1.0" encoding="UTF-8" standalone="no"?>
<!-- Created with Inkscape (http://www.inkscape.org/) -->

<svg
   version="1.1"
   id="svg18"
   width="645.66669"
   height="307.77734"
   viewBox="0 0 645.66669 307.77734"
   sodipodi:docname="Yncrea_BM_ISEN-Nantes_horizontal.ai"
   xmlns:inkscape="http://www.inkscape.org/namespaces/inkscape"
   xmlns:sodipodi="http://sodipodi.sourceforge.net/DTD/sodipodi-0.dtd"
   xmlns="http://www.w3.org/2000/svg"
   xmlns:svg="http://www.w3.org/2000/svg">
  <defs
     id="defs22">
    <clipPath
       clipPathUnits="userSpaceOnUse"
       id="clipPath34">
      <path
         d="M 0,230.833 H 484.25 V 0 H 0 Z"
         id="path32" />
    </clipPath>
    <clipPath
       clipPathUnits="userSpaceOnUse"
       id="clipPath142">
      <path
         d="M 0,230.833 H 484.25 V 0 H 0 Z"
         id="path140" />
    </clipPath>
  </defs>
  <sodipodi:namedview
     id="namedview20"
     pagecolor="#505050"
     bordercolor="#ffffff"
     borderopacity="1"
     inkscape:showpageshadow="0"
     inkscape:pageopacity="0"
     inkscape:pagecheckerboard="1"
     inkscape:deskcolor="#505050"
     showgrid="false" />
  <g
     id="g26"
     inkscape:groupmode="layer"
     inkscape:label="Page 1"
     transform="matrix(1.3333333,0,0,-1.3333333,0,307.77733)">
    <g
       id="g28">
      <g
         id="g30"
         clip-path="url(#clipPath34)">
        <g
           id="g36"
           transform="translate(52.7881,116.0439)">
          <path
             d="m 0,0 h -5.65 c -2.311,0 -3.852,2.052 -3.852,3.723 v 78.181 c 0,2.824 1.029,4.107 3.725,4.107 h 6.419 c 2.567,0 3.337,-1.798 3.337,-3.98 V 3.594 C 3.979,1.54 2.439,0 0,0"
             style="fill:#e30613;fill-opacity:1;fill-rule:nonzero;stroke:none"
             id="path38" />
        </g>
        <g
           id="g40"
           transform="translate(93.8691,114.1196)">
          <path
             d="m 0,0 c -9.116,0.383 -17.202,5.004 -21.953,12.323 -1.027,1.541 -0.899,3.081 0.256,3.849 l 7.832,5.65 c 1.413,1.026 2.953,0.514 4.236,-1.283 2.183,-3.338 5.905,-5.65 10.142,-5.907 7.059,-0.257 13.35,5.649 13.61,12.712 0.128,7.06 -6.165,13.475 -12.583,13.736 -13.351,0.64 -24.008,11.68 -23.364,25.032 0.512,13.353 11.552,23.877 25.035,23.493 7.315,-0.257 13.349,-3.337 17.713,-8.473 0.898,-1.028 0.771,-2.184 -0.129,-2.953 l -8.086,-6.291 c -1.153,-0.768 -1.926,-0.899 -2.697,0 C 8.215,74.2 5.646,75.483 2.695,75.483 -2.953,75.74 -7.703,71.249 -7.83,65.6 -7.83,59.949 -3.081,55.584 2.052,55.328 17.202,54.816 29.267,42.105 28.756,26.7 28.243,11.552 15.274,-0.515 0,0"
             style="fill:#e30613;fill-opacity:1;fill-rule:nonzero;stroke:none"
             id="path42" />
        </g>
        <g
           id="g44"
           transform="translate(183.8574,116.0439)">
          <path
             d="m 0,0 h -45.829 c -2.567,0 -3.338,1.797 -3.338,4.108 v 77.923 c 0,2.182 1.799,3.98 3.983,3.98 H 0 c 1.802,0 3.726,-1.41 3.726,-3.722 v -5.777 c 0,-2.312 -1.54,-3.98 -3.598,-3.98 h -32.092 c -2.307,0 -3.595,-2.184 -3.595,-3.852 V 55.2 c 0,-2.181 1.799,-3.981 3.854,-3.981 h 27.346 c 2.051,0 3.591,-1.539 3.591,-3.974 v -5.654 c 0,-2.308 -2.054,-3.848 -3.724,-3.848 h -27.083 c -2.185,0 -3.984,-1.928 -3.984,-4.109 V 18.101 c 0,-2.827 1.414,-4.622 3.595,-4.622 H 0.128 c 2.058,0 3.598,-1.54 3.598,-3.98 V 3.851 C 3.726,1.54 1.802,0 0,0"
             style="fill:#e30613;fill-opacity:1;fill-rule:nonzero;stroke:none"
             id="path46" />
        </g>
        <g
           id="g48"
           transform="translate(262.042,116.0439)">
          <path
             d="m 0,0 h -3.852 c -2.179,0 -4.62,2.311 -5.647,3.723 l -34.277,48.909 c -1.285,1.799 -3.336,1.412 -3.336,-1.285 V 3.594 C -47.112,1.54 -48.655,0 -51.095,0 h -5.649 c -2.312,0 -3.849,2.052 -3.849,3.723 v 78.181 c 0,2.824 1.026,4.107 3.721,4.107 h 4.367 c 2.569,0 4.234,-2.31 5.393,-3.98 l 34.145,-48.267 c 1.544,-2.185 3.468,-2.44 3.468,0.895 v 47.245 c 0,2.824 1.027,4.107 3.723,4.107 h 6.417 c 2.569,0 3.338,-1.798 3.338,-3.98 V 3.594 C 3.979,1.54 2.439,0 0,0"
             style="fill:#e30613;fill-opacity:1;fill-rule:nonzero;stroke:none"
             id="path50" />
        </g>
        <g
           id="g52"
           transform="translate(59.3789,74.1143)">
          <path
             d="m 0,0 -4.204,10.842 c -0.4,0.967 -0.633,1.635 -0.901,2.467 h -0.066 c -0.3,-0.866 -0.566,-1.6 -0.934,-2.536 L -10.308,0 Z m -6.404,15.246 h 2.669 L 5.638,-8.51 H 3.27 L 0.7,-1.736 h -11.743 l -2.635,-6.774 h -2.235 z"
             style="fill:#514f4e;fill-opacity:1;fill-rule:nonzero;stroke:none"
             id="path54" />
        </g>
        <g
           id="g56"
           transform="translate(67.7207,89.3584)">
          <path
             d="m 0,0 h 2.068 v -22.018 h 10.543 v -1.736 H 0 Z"
             style="fill:#514f4e;fill-opacity:1;fill-rule:nonzero;stroke:none"
             id="path58" />
        </g>
        <g
           id="g60"
           transform="translate(83.168,89.3584)">
          <path
             d="M 0,0 H 2.068 V -22.018 H 12.61 v -1.736 H 0 Z"
             style="fill:#514f4e;fill-opacity:1;fill-rule:nonzero;stroke:none"
             id="path62" />
        </g>
        <path
           d="m 107.289,89.358 h 2.068 V 65.604 h -2.068 z"
           style="fill:#514f4e;fill-opacity:1;fill-rule:nonzero;stroke:none"
           id="path64" />
        <g
           id="g66"
           transform="translate(115.1953,70.7783)">
          <path
             d="m 0,0 c 1.034,-3.035 2.97,-3.807 5.105,-3.807 3.335,0 5.27,2.27 5.27,4.672 0,2.703 -2.202,3.871 -5.905,5.539 -2.669,1.201 -5.838,2.903 -5.838,6.407 0,4.369 3.97,6.271 6.906,6.271 3.703,0 5.437,-1.535 6.806,-4.103 L 10.108,14.244 C 9.641,15.979 8.374,17.213 5.604,17.213 1.835,17.213 0.9,14.611 0.9,13.076 0.9,10.309 2.802,9.342 6.806,7.539 9.773,6.205 12.644,4.77 12.644,0.967 c 0,-3.004 -2.469,-6.639 -7.506,-6.639 -4.838,0 -6.706,2.967 -7.306,4.803 z"
             style="fill:#514f4e;fill-opacity:1;fill-rule:nonzero;stroke:none"
             id="path68" />
        </g>
        <g
           id="g70"
           transform="translate(142.6191,67.3408)">
          <path
             d="m 0,0 h 3.203 c 5.203,0 10.142,3.068 10.142,10.143 0,4.203 -1.803,10.14 -9.809,10.14 H 0 Z m 4.271,22.018 c 9.575,0 11.243,-7.94 11.243,-11.875 0,-4.903 -2.202,-11.877 -12.544,-11.877 h -5.038 v 23.752 z"
             style="fill:#514f4e;fill-opacity:1;fill-rule:nonzero;stroke:none"
             id="path72" />
        </g>
        <path
           d="m 162.304,89.358 h 2.068 V 65.604 h -2.068 z"
           style="fill:#514f4e;fill-opacity:1;fill-rule:nonzero;stroke:none"
           id="path74" />
        <g
           id="g76"
           transform="translate(184.4219,83.6553)">
          <path
             d="m 0,0 c -1.034,2.936 -2.902,4.469 -5.672,4.469 -7.005,0 -8.04,-7.205 -8.04,-10.541 0,-5.539 1.702,-10.744 8.04,-10.744 1.937,0 3.336,0.336 5.372,1.334 v 8.076 h -5.238 v 1.734 h 7.307 v -10.709 c -2.002,-1 -4.271,-2.168 -7.775,-2.168 -7.472,0 -9.874,6.205 -9.874,12.043 0,7.307 3.169,12.711 10.142,12.711 3.535,0 6.438,-1.535 7.84,-5.74 z"
             style="fill:#514f4e;fill-opacity:1;fill-rule:nonzero;stroke:none"
             id="path78" />
        </g>
        <path
           d="m 191.328,89.358 h 2.068 V 65.604 h -2.068 z"
           style="fill:#514f4e;fill-opacity:1;fill-rule:nonzero;stroke:none"
           id="path80" />
        <g
           id="g82"
           transform="translate(212.5459,89.3584)">
          <path
             d="m 0,0 v -1.732 h -7.106 v -22.022 h -2.068 v 22.022 h -7.107 V 0 Z"
             style="fill:#514f4e;fill-opacity:1;fill-rule:nonzero;stroke:none"
             id="path84" />
        </g>
        <g
           id="g86"
           transform="translate(227.4922,74.1143)">
          <path
             d="m 0,0 -4.204,10.842 c -0.4,0.967 -0.633,1.635 -0.9,2.467 h -0.067 c -0.3,-0.866 -0.566,-1.6 -0.934,-2.536 L -10.308,0 Z m -6.404,15.246 h 2.668 L 5.638,-8.51 H 3.27 L 0.7,-1.736 h -11.743 l -2.635,-6.774 h -2.235 z"
             style="fill:#514f4e;fill-opacity:1;fill-rule:nonzero;stroke:none"
             id="path88" />
        </g>
        <g
           id="g90"
           transform="translate(235.834,89.3584)">
          <path
             d="M 0,0 H 2.068 V -22.018 H 12.61 v -1.736 H 0 Z"
             style="fill:#514f4e;fill-opacity:1;fill-rule:nonzero;stroke:none"
             id="path92" />
        </g>
        <g
           id="g94"
           transform="translate(254.417,71.7119)">
          <path
             d="M 0,0 H -1.735 L -2.069,17.646 H 0.333 Z M -2.269,-3.168 H 0.534 V -6.107 H -2.269 Z"
             style="fill:#514f4e;fill-opacity:1;fill-rule:nonzero;stroke:none"
             id="path96" />
        </g>
        <g
           id="g98"
           transform="translate(313.8984,202.292)">
          <path
             d="M 0,0 V -137.293"
             style="fill:none;stroke:#878787;stroke-width:1.795;stroke-linecap:butt;stroke-linejoin:miter;stroke-miterlimit:10;stroke-dasharray:none;stroke-opacity:1"
             id="path100" />
        </g>
        <g
           id="g102"
           transform="translate(397.5615,186.0508)">
          <path
             d="m 0,0 c -19.658,0 -35.652,-15.994 -35.652,-35.654 0,-19.66 15.994,-35.654 35.652,-35.654 19.66,0 35.655,15.994 35.655,35.654 C 35.655,-15.994 19.66,0 0,0 m 0,-1.159 c 19.052,0 34.496,-15.445 34.496,-34.495 0,-19.051 -15.444,-34.494 -34.496,-34.494 -19.05,0 -34.493,15.443 -34.493,34.494 0,19.05 15.443,34.495 34.493,34.495"
             style="fill:#0d0d17;fill-opacity:1;fill-rule:nonzero;stroke:none"
             id="path104" />
        </g>
        <g
           id="g106"
           transform="translate(415.7881,166.8184)">
          <path
             d="m 0,0 -0.743,-2.97 c -0.156,-0.618 -0.72,-1.029 -1.289,-0.921 -0.682,0.06 -1.39,0.123 -1.943,0.123 -2.857,0 -3.929,-1.9 -5.374,-6.733 l -4.609,-15.692 c -2.74,-9.486 -5.913,-12.71 -12.575,-12.775 -0.779,0 -2.085,0.071 -2.769,0.133 l -0.023,0.002 c -0.364,0.055 -0.607,0.19 -0.749,0.41 -0.127,0.198 -0.151,0.439 -0.072,0.715 l 0.827,2.867 c 0.165,0.644 0.664,1.005 1.277,0.915 0.677,-0.061 1.3,-0.061 1.96,-0.061 2.836,0 3.94,2.087 5.361,6.843 l 4.612,15.691 c 2.736,9.438 5.907,12.645 12.566,12.71 h 0.022 c 0.748,0 1.972,-0.002 2.776,-0.135 C -0.428,1.065 -0.203,0.93 -0.073,0.72 0.014,0.582 0.096,0.345 0,0 m -34.082,0.798 h 5.271 c 0.387,0 0.75,-0.19 0.971,-0.508 l 9.231,-13.375 c 0.15,-0.218 0.194,-0.493 0.117,-0.747 l -1.805,-6.08 c -0.086,-0.285 -0.462,-0.347 -0.634,-0.104 l -13.811,19.535 c -0.38,0.537 0.004,1.279 0.66,1.279 m 15.856,14.824 c -17.697,0 -32.043,-14.346 -32.043,-32.044 0,-17.697 14.346,-32.044 32.043,-32.044 17.698,0 32.044,14.347 32.044,32.044 0,17.698 -14.346,32.044 -32.044,32.044"
             style="fill:#0d0d17;fill-opacity:1;fill-rule:nonzero;stroke:none"
             id="path108" />
        </g>
        <g
           id="g110"
           transform="translate(364.543,89.8643)">
          <path
             d="m 0,0 c -1.599,-4.115 -3.25,-6.291 -7.836,-4.613 l 0.395,2.543 c 2.068,-0.918 3.143,-0.131 3.877,1.966 l 0.084,0.313 -5.531,12.238 v 0.42 h 3.854 L -3.455,8.594 -1.804,3.93 h 0.079 l 1.442,4.638 1.519,4.299 h 3.722 v -0.42 z"
             style="fill:#0d0d17;fill-opacity:1;fill-rule:nonzero;stroke:none"
             id="path112" />
        </g>
        <g
           id="g114"
           transform="translate(396.5186,98.1709)">
          <path
             d="M 0,0 C -0.446,1.18 -1.521,1.756 -2.647,1.73 -4.22,1.705 -5.844,0.551 -5.844,-1.703 c 0,-2.281 1.624,-3.486 3.197,-3.486 1.153,0 2.253,0.63 2.699,1.966 h 3.486 c -0.524,-3.381 -3.381,-5.084 -6.289,-5.111 -3.329,-0.025 -6.737,2.174 -6.737,6.631 0,4.428 3.434,6.658 6.761,6.658 2.858,0 5.635,-1.652 6.212,-4.955 z"
             style="fill:#0d0d17;fill-opacity:1;fill-rule:nonzero;stroke:none"
             id="path116" />
        </g>
        <g
           id="g118"
           transform="translate(410.0664,103.126)">
          <path
             d="M 0,0 C 0.969,0.023 1.966,-0.264 2.699,-0.812 L 1.888,-3.881 c -0.761,0.5 -1.547,0.709 -2.36,0.682 -1.598,0 -2.962,-1.049 -2.962,-2.988 v -6.838 h -3.59 v 8.91 c 0,1.047 -0.104,1.728 -1.258,1.545 v 2.254 c 1.835,0.42 4.535,0.42 4.744,-1.832 C -3.015,-0.709 -1.546,0 0,0"
             style="fill:#0d0d17;fill-opacity:1;fill-rule:nonzero;stroke:none"
             id="path120" />
        </g>
        <g
           id="g122"
           transform="translate(418.3994,104.96)">
          <path
             d="M 0,0 V 0.312 L 1.834,4.113 4.954,2.961 V 2.672 L 2.778,0 Z m -1.021,-6.945 h 5.555 c 0.079,1.65 -1.258,2.226 -2.621,2.226 -1.389,0 -2.646,-0.76 -2.934,-2.226 m 8.543,-2.36 h -8.571 c 0.132,-1.966 1.6,-2.724 3.356,-2.857 0.524,-0.026 1.127,-0.053 1.676,0.027 1.128,0.129 2.254,0.418 3.015,0.76 l 0.419,-2.674 c -1.494,-0.707 -3.224,-1.127 -4.9,-1.127 -4.246,-0.078 -7.235,2.518 -7.235,6.787 0.079,4.405 3.278,6.475 6.631,6.475 4.613,0 6.579,-3.094 5.609,-7.391"
             style="fill:#0d0d17;fill-opacity:1;fill-rule:nonzero;stroke:none"
             id="path124" />
        </g>
        <g
           id="g126"
           transform="translate(436.168,95.2881)">
          <path
             d="M 0,0 C -0.733,0.498 -1.703,0.734 -2.621,0.734 -3.774,0.656 -4.718,0 -4.586,-1.232 c 0.078,-0.916 0.891,-1.362 1.728,-1.362 1.206,0 2.727,0.602 2.858,1.938 z m -3.592,-5.426 c -2.357,0 -4.508,1.522 -4.586,3.959 -0.131,3.092 2.098,4.561 4.901,4.561 1.128,0 2.412,-0.211 3.356,-0.813 v 0.864 c 0,1.548 -1.889,1.808 -3.145,1.808 -1.337,0 -2.57,-0.156 -3.643,-0.76 l -0.473,2.621 c 1.336,0.629 3.04,0.944 4.744,0.944 3.249,0 6.029,-1.074 6.029,-4.719 V -1.52 c 0,-1.074 -0.028,-1.705 1.179,-1.625 L 4.796,-5.189 C 2.883,-5.607 0.787,-5.504 0.787,-3.25 0.025,-4.822 -1.967,-5.426 -3.592,-5.426"
             style="fill:#0d0d17;fill-opacity:1;fill-rule:nonzero;stroke:none"
             id="path128" />
        </g>
        <g
           id="g130"
           transform="translate(379.5635,103.0186)">
          <path
             d="m 0,0 c -1.468,0 -3.328,-0.498 -4.036,-1.965 0,1.824 -1.873,2.004 -3.484,1.856 l -1.128,-2.432 c 1.205,-0.002 1.205,-0.395 1.205,-1.65 v -8.729 h 3.669 v 7.234 c 0,1.782 1.284,2.778 2.672,2.778 1.311,0 2.464,-0.971 2.386,-2.699 V -12.92 H 4.98 v 7.313 C 4.98,-2.463 3.564,0 0,0"
             style="fill:#0d0d17;fill-opacity:1;fill-rule:nonzero;stroke:none"
             id="path132" />
        </g>
        <path
           d="m 43.286,26.833 h 113.82 V 51.001 H 43.286 Z"
           style="fill:#e30613;fill-opacity:1;fill-rule:nonzero;stroke:none"
           id="path134" />
      </g>
    </g>
    <g
       id="g136">
      <g
         id="g138"
         clip-path="url(#clipPath142)">
        <g
           id="g144"
           transform="translate(52.603,47.6094)">
          <path
             d="m 0,0 h 4.824 l 4.748,-8.623 c 0.95,-1.75 2.05,-4.099 2.3,-5.273 h 0.175 c -0.1,0.899 -0.175,2.999 -0.175,4.898 V 0 h 3.449 V -17.796 H 10.372 L 4.949,-7.623 c -0.6,1.1 -1.225,2.599 -1.525,3.724 h -0.15 c 0.075,-1.225 0.175,-2.624 0.175,-4.124 v -9.773 H 0 Z"
             style="fill:#ffffff;fill-opacity:1;fill-rule:nonzero;stroke:none"
             id="path146" />
        </g>
        <g
           id="g148"
           transform="translate(81.5,36.7119)">
          <path
             d="M 0,0 -1.975,5.599 C -2.25,6.373 -2.524,7.273 -2.674,8.048 H -2.799 C -2.924,7.273 -3.174,6.349 -3.449,5.599 L -5.499,0 Z m -4.999,10.897 h 4.774 L 6.249,-6.898 H 2.325 L 0.9,-2.749 h -7.348 l -1.475,-4.149 h -3.774 z"
             style="fill:#ffffff;fill-opacity:1;fill-rule:nonzero;stroke:none"
             id="path150" />
        </g>
        <g
           id="g152"
           transform="translate(89.6274,47.6094)">
          <path
             d="m 0,0 h 4.824 l 4.748,-8.623 c 0.95,-1.75 2.05,-4.099 2.3,-5.273 h 0.175 c -0.1,0.899 -0.175,2.999 -0.175,4.898 V 0 h 3.449 V -17.796 H 10.372 L 4.949,-7.623 c -0.6,1.1 -1.225,2.599 -1.525,3.724 h -0.15 c 0.075,-1.225 0.175,-2.624 0.175,-4.124 v -9.773 H 0 Z"
             style="fill:#ffffff;fill-opacity:1;fill-rule:nonzero;stroke:none"
             id="path154" />
        </g>
        <g
           id="g156"
           transform="translate(111.8511,44.6602)">
          <path
             d="M 0,0 H -4.874 V 2.949 H 8.623 V 0 H 3.749 V -14.847 H 0 Z"
             style="fill:#ffffff;fill-opacity:1;fill-rule:nonzero;stroke:none"
             id="path158" />
        </g>
        <g
           id="g160"
           transform="translate(122.502,47.6094)">
          <path
             d="M 0,0 H 11.547 V -2.85 H 3.749 v -4.348 h 7.373 v -2.85 H 3.749 v -4.898 h 8.048 v -2.85 H 0 Z"
             style="fill:#ffffff;fill-opacity:1;fill-rule:nonzero;stroke:none"
             id="path162" />
        </g>
        <g
           id="g164"
           transform="translate(145.9243,43.2598)">
          <path
             d="m 0,0 c -0.25,0.75 -0.675,2.025 -2.599,2.025 -2.025,0 -2.799,-1.125 -2.799,-2.125 0,-0.899 0.324,-1.324 1.524,-1.824 l 3.899,-1.625 c 2.524,-1.05 3.749,-2.399 3.749,-4.749 0,-2.999 -2.349,-5.573 -6.873,-5.573 -4.124,0 -6.024,2.35 -6.423,4.174 l 3.374,1.274 c 0.174,-1.175 0.924,-2.598 3.224,-2.598 1.799,0 2.949,0.924 2.949,2.348 0,0.925 -0.525,1.625 -2.15,2.25 l -2.374,0.925 c -2.324,0.875 -4.648,2.149 -4.648,4.974 0,2.474 1.674,5.298 6.473,5.298 2.949,0 5.098,-0.724 6.073,-3.649 z"
             style="fill:#ffffff;fill-opacity:1;fill-rule:nonzero;stroke:none"
             id="path166" />
        </g>
      </g>
    </g>
  </g>
</svg>
